<?xml version="1.0" encoding="UTF-8" standalone="no"?>
<svg
   id="svg8"
   version="1.1"
   viewBox="0 0 320.362 59.959084"
   height="59.959084mm"
   width="320.362mm"
   xmlns="http://www.w3.org/2000/svg"
   xmlns:svg="http://www.w3.org/2000/svg"
   xmlns:rdf="http://www.w3.org/1999/02/22-rdf-syntax-ns#"
   xmlns:cc="http://creativecommons.org/ns#"
   xmlns:dc="http://purl.org/dc/elements/1.1/">
  <defs
     id="defs2">
    <clipPath
       clipPathUnits="userSpaceOnUse"
       id="clipPath224">
      <path
         d="M 0,0 H 595.276 V 841.89 H 0 Z"
         id="path226" />
    </clipPath>
    <clipPath
       clipPathUnits="userSpaceOnUse"
       id="clipPath200">
      <path
         d="M 0,0 H 595.276 V 841.89 H 0 Z"
         id="path202" />
    </clipPath>
    <clipPath
       clipPathUnits="userSpaceOnUse"
       id="clipPath182">
      <path
         d="M 0,0 H 595.276 V 841.89 H 0 Z"
         id="path184" />
    </clipPath>
    <clipPath
       clipPathUnits="userSpaceOnUse"
       id="clipPath162">
      <path
         d="M 0,0 H 595.276 V 841.89 H 0 Z"
         id="path164" />
    </clipPath>
    <clipPath
       clipPathUnits="userSpaceOnUse"
       id="clipPath112">
      <path
         d="M 0,0 H 595.276 V 841.89 H 0 Z"
         id="path114" />
    </clipPath>
    <clipPath
       clipPathUnits="userSpaceOnUse"
       id="clipPath86">
      <path
         d="M 0,0 H 595.276 V 841.89 H 0 Z"
         id="path88" />
    </clipPath>
    <clipPath
       clipPathUnits="userSpaceOnUse"
       id="clipPath72">
      <path
         d="M 0,0 H 595.276 V 841.89 H 0 Z"
         id="path74" />
    </clipPath>
  </defs>
  <metadata
     id="metadata5">
    <rdf:RDF>
      <cc:Work
         rdf:about="">
        <dc:format>image/svg+xml</dc:format>
        <dc:type
           rdf:resource="http://purl.org/dc/dcmitype/StillImage" />
      </cc:Work>
    </rdf:RDF>
  </metadata>
  <g
     id="g967">
    <g
       id="g4147">
      <g
         id="g4167">
        <g
           transform="translate(-35.649058,-46.436721)"
           id="layer1">
          <g
             id="g8829"
             transform="matrix(0.47418011,0,0,0.47239199,-122.00159,68.21275)">
            <g
               id="g140"
               transform="matrix(1.9934946,0,0,-1.9059367,534.08704,12.273574)">
              <path
                 d="M 0,0 C 0.281,0.281 0.613,0.643 0.996,1.086 1.378,1.529 1.74,2.052 2.082,2.656 2.424,3.26 2.716,3.933 2.957,4.678 3.199,5.422 3.32,6.217 3.32,7.062 c 0,1.649 -0.282,3.188 -0.845,4.617 -0.564,1.428 -1.429,2.676 -2.596,3.743 -1.167,1.065 -2.625,1.901 -4.376,2.505 -1.75,0.603 -3.793,0.905 -6.126,0.905 h -0.064 -6.708 -1.746 -6.874 v -7.694 -26.636 -7.921 h 16.901 c 2.454,0 4.596,0.332 6.428,0.996 1.83,0.664 3.35,1.579 4.557,2.746 1.207,1.167 2.102,2.525 2.686,4.074 0.583,1.549 0.875,3.209 0.875,4.98 0,2.374 -0.543,4.486 -1.629,6.338 C 2.716,-2.435 1.448,-1.006 0,0 m -7.473,11.09 c 0.569,-0.217 1.044,-0.499 1.415,-0.854 0.961,-0.922 1.442,-2.024 1.442,-3.306 0,-1.163 -0.201,-2.124 -0.601,-2.885 C -5.618,3.283 -6.019,2.702 -6.419,2.302 h -11.749 v 9.287 h 7.303 c 1.369,0 2.496,-0.169 3.392,-0.499 m -1.219,-16.1 c 2.127,0 3.703,-0.551 4.729,-1.651 0.965,-1.083 1.451,-2.361 1.451,-3.84 0,-1.524 -0.551,-2.825 -1.653,-3.907 -1.103,-1.082 -2.915,-1.624 -5.44,-1.624 h -0.943 -7.62 V -5.01 Z"
                 style="fill:#00529c;fill-opacity:1;fill-rule:nonzero;stroke:none"
                 id="path142" />
            </g>
            <g
               id="g144"
               transform="matrix(1.9934946,0,0,-1.9059367,602.03735,22.224471)">
              <path
                 d="m 0,0 c 1.267,0.865 2.324,1.871 3.169,3.018 0.845,1.147 1.468,2.414 1.871,3.802 0.402,1.389 0.604,2.807 0.604,4.256 0,1.891 -0.313,3.631 -0.936,5.221 -0.625,1.589 -1.56,2.957 -2.807,4.104 -1.248,1.147 -2.807,2.042 -4.678,2.686 -1.871,0.643 -4.034,0.966 -6.488,0.966 h -0.221 -16.257 -0.152 v -42.251 h 7.999 v 15.693 h 4.46 L -2.405,-18.198 H 6.971 L -4.436,-1.962 C -2.747,-1.52 -1.268,-0.866 0,0 m -9.205,16.81 c 0.503,0 0.978,-0.033 1.43,-0.09 1.426,-0.215 2.591,-0.724 3.489,-1.533 1.222,-1.103 1.833,-2.455 1.833,-4.057 0,-0.803 -0.131,-1.584 -0.391,-2.345 C -3.105,8.023 -3.515,7.352 -4.076,6.772 -4.638,6.19 -5.359,5.72 -6.24,5.359 -7.122,4.998 -8.184,4.818 -9.426,4.818 h -8.47 V 16.81 Z"
                 style="fill:#00529c;fill-opacity:1;fill-rule:nonzero;stroke:none"
                 id="path146" />
            </g>
            <g
               id="g148"
               transform="matrix(1.9934946,0,0,-1.9059367,621.56562,-23.619026)">
              <path
                 d="M 0,0 V -0.012 C -0.081,-0.01 -0.16,0 -0.241,0 H -0.309 V -0.003 -15.49 -26.587 -42.251 H 7.847 V 0 Z"
                 style="fill:#00529c;fill-opacity:1;fill-rule:nonzero;stroke:none"
                 id="path150" />
            </g>
          </g>
        </g>
        <g
           aria-label="finance"
           transform="matrix(0.97586115,0,0,1.0229507,0,0.01835454)"
           id="text2726"
           style="font-size:53.12px;line-height:1.25;font-family:'AU Passata';-inkscape-font-specification:'AU Passata';fill:#f36f21;stroke-width:1.32799">
          <path
             d="m 156.70983,24.517595 h -3.7184 v -3.612159 h 3.7184 v -2.01856 q 0,-4.62144 2.17792,-6.58688 2.17792,-2.01856 5.89632,-2.01856 h 1.0624 v 3.61216 h -1.0624 q -2.07168,0 -3.1872,1.16864 -1.0624,1.16864 -1.0624,4.09024 v 1.75296 h 5.312 v 3.612159 h -5.312 v 22.94784 h -3.82464 z"
             id="path4096" />
          <path
             d="m 170.94598,20.905436 h 3.82464 v 26.559999 h -3.82464 z m 0,-10.624 h 3.82464 v 4.35584 h -3.82464 z"
             id="path4098" />
          <path
             d="m 182.26059,20.905436 h 3.82464 v 3.452799 q 1.5936,-1.912319 3.984,-2.921599 2.3904,-1.0624 4.62144,-1.0624 5.20576,0 8.18048,2.81536 3.02784,2.815359 3.02784,8.817919 v 15.45792 h -3.87776 v -14.71424 q 0,-4.56832 -1.96544,-6.53376 -1.96544,-2.01856 -5.63072,-2.01856 -1.27488,0 -2.54976,0.47808 -1.27488,0.42496 -2.3904,1.16864 -1.11552,0.69056 -2.01856,1.54048 -0.90304,0.84992 -1.38112,1.69984 v 18.37952 h -3.82464 z"
             id="path4100" />
          <path
             d="m 233.57453,44.012635 q -3.7184,3.984 -9.0304,3.984 -2.86848,0 -5.41824,-1.0624 -2.49664,-1.11552 -4.35584,-2.97472 -1.8592,-1.8592 -2.97472,-4.35584 -1.0624,-2.54976 -1.0624,-5.41824 0,-2.86848 1.0624,-5.36512 1.11552,-2.54976 2.97472,-4.40896 1.8592,-1.859199 4.35584,-2.921599 2.54976,-1.11552 5.41824,-1.11552 5.312,0 9.0304,3.983999 v -3.452799 h 3.82464 v 26.559999 h -3.82464 z m 0,-14.92672 q -0.58432,-0.84992 -1.54048,-1.75296 -0.90304,-0.90304 -2.07168,-1.64672 -1.11552,-0.74368 -2.49664,-1.22176 -1.38112,-0.478079 -2.9216,-0.478079 -2.1248,0 -3.93088,0.796799 -1.80608,0.7968 -3.13408,2.17792 -1.328,1.38112 -2.07168,3.24032 -0.74368,1.8592 -0.74368,3.984 0,2.1248 0.74368,3.984 0.74368,1.8592 2.07168,3.24032 1.328,1.38112 3.13408,2.17792 1.80608,0.7968 3.93088,0.7968 1.54048,0 2.9216,-0.42496 1.38112,-0.47808 2.49664,-1.16864 1.16864,-0.74368 2.07168,-1.64672 0.95616,-0.95616 1.54048,-1.8592 z"
             id="path4102" />
          <path
             d="m 244.3048,20.905436 h 3.82464 v 3.452799 q 1.5936,-1.912319 3.984,-2.921599 2.3904,-1.0624 4.62144,-1.0624 5.20576,0 8.18048,2.81536 3.02784,2.815359 3.02784,8.817919 v 15.45792 h -3.87776 v -14.71424 q 0,-4.56832 -1.96544,-6.53376 -1.96544,-2.01856 -5.63072,-2.01856 -1.27488,0 -2.54976,0.47808 -1.27488,0.42496 -2.3904,1.16864 -1.11552,0.69056 -2.01856,1.54048 -0.90304,0.84992 -1.38112,1.69984 v 18.37952 h -3.82464 z"
             id="path4104" />
          <path
             d="m 298.00916,40.559835 q -1.54048,3.34656 -4.62144,5.41824 -3.08096,2.01856 -7.11808,2.01856 -2.86848,0 -5.41824,-1.0624 -2.49664,-1.11552 -4.35584,-2.97472 -1.8592,-1.8592 -2.97472,-4.35584 -1.0624,-2.54976 -1.0624,-5.41824 0,-2.86848 1.0624,-5.36512 1.11552,-2.54976 2.97472,-4.40896 1.8592,-1.859199 4.35584,-2.921599 2.54976,-1.11552 5.41824,-1.11552 4.03712,0 7.11808,2.07168 3.08096,2.018559 4.62144,5.365119 h -4.62144 q -1.22176,-1.75296 -2.97472,-2.70912 -1.69984,-0.95616 -4.14336,-0.95616 -2.1248,0 -3.93088,0.7968 -1.80608,0.74368 -3.13408,2.1248 -1.27488,1.328 -2.01856,3.1872 -0.74368,1.80608 -0.74368,3.93088 0,2.1248 0.74368,3.984 0.74368,1.80608 2.01856,3.1872 1.328,1.328 3.13408,2.1248 1.80608,0.74368 3.93088,0.74368 2.44352,0 4.19648,-0.95616 1.80608,-0.95616 3.02784,-2.70912 z"
             id="path4106" />
          <path
             d="m 327.01263,40.559835 q -0.84992,1.64672 -2.17792,3.02784 -1.328,1.38112 -2.97472,2.3904 -1.5936,0.95616 -3.50592,1.48736 -1.8592,0.5312 -3.87776,0.5312 -2.86848,0 -5.36512,-1.0624 -2.44352,-1.11552 -4.2496,-2.97472 -1.80608,-1.8592 -2.86848,-4.35584 -1.00928,-2.54976 -1.00928,-5.41824 0,-2.86848 1.00928,-5.36512 1.0624,-2.54976 2.86848,-4.40896 1.80608,-1.859199 4.2496,-2.921599 2.49664,-1.11552 5.36512,-1.11552 3.08096,0 5.63072,1.11552 2.54976,1.11552 4.35584,3.134079 1.80608,2.01856 2.81536,4.94016 1.00928,2.86848 1.00928,6.42752 h -23.21344 q 0.31872,1.80608 1.11552,3.34656 0.7968,1.48736 1.96544,2.60288 1.22176,1.11552 2.81536,1.75296 1.5936,0.63744 3.50592,0.63744 2.44352,0 4.5152,-1.00928 2.1248,-1.00928 3.50592,-2.76224 z m -2.97472,-8.18048 q -0.15936,-1.75296 -1.00928,-3.29344 -0.7968,-1.54048 -2.07168,-2.656 -1.27488,-1.11552 -2.97472,-1.75296 -1.64672,-0.63744 -3.50592,-0.63744 -1.91232,0 -3.50592,0.63744 -1.5936,0.63744 -2.81536,1.75296 -1.16864,1.11552 -1.96544,2.656 -0.7968,1.54048 -1.11552,3.29344 z"
             id="path4108" />
        </g>
      </g>
    </g>
    <g
       transform="matrix(2.5266143,0,0,-2.5266143,51.100451,59.922073)"
       id="g246"
       style="font-size:10.5833px;line-height:1.25;font-family:'AU Passata';-inkscape-font-specification:'AU Passata';fill:#00529c;fill-opacity:1;stroke-width:0.264583">
      <path
         id="path248"
         style="fill:#00529c;fill-opacity:1;fill-rule:nonzero;stroke:none"
         d="M -0.13248521,23.714063 H -16.603486 c -2,0 -3.621,-1.661 -3.621,-3.71 v -0.039 -16.273 c 0,-2.029 1.591,-3.67899993 3.565,-3.70899993 h 16.51800079 c 1.99999991,0 3.62199991,1.65999993 3.62199991,3.70899993 l 0.007,16.312 c 0,2.049 -1.62,3.71 -3.61999991,3.71 m -14.51400079,-21.83 -0.898,-0.01 c -1.088,0 -1.97,0.894 -1.97,1.997 l -0.005,0.157 v 15.064 l 0.006,0.812 c 0.041,1.067 0.852,1.925 1.913,1.925 h 1.827 c 1.656,0 2.998,-1.44 2.998,-3.137 0,-0.84 -0.329,-1.602 -0.862,-2.156 l -4.661,-4.73 4.369,-4.449 c 0.563,-0.581 0.903,-1.343 0.903,-2.178 0,-1.82 -1.62,-3.295 -3.62,-3.295 m 13.4310007,0.015 -8.145,0.003 c 0,0 0.941,2.035 0.941,3.295 0,1.537 -0.513,2.909 -1.317,3.817 l -2.7860007,2.84 2.8430007,2.938 c 0.847,0.795 1.409,2.207 1.409,3.816 0,1.274 -0.352,2.402 -0.919,3.221 h 1.973 c 1.656,0 2.999,-1.44 2.999,-3.137 0,-0.84 -0.329,-1.602 -0.862,-2.156 l -4.572,-4.681 9.49600009,-9.683 c -0.301,-0.189 -0.68,-0.273 -1.06000009,-0.273 m 1.98900009,3.023 -6.80500009,6.936 3.241,3.294 c 0.659,0.825 1.078,2.067 1.078,3.456 0,1.282 -0.357,2.439 -0.929,3.258 l 1.45,-0.044 c 1.08800009,0 1.97000009,-0.894 1.97000009,-1.997 z" />
    </g>
  </g>
</svg>
